HIERARCHY
ROOT ROOT
{
	OFFSET 0.000000 56.020000 -5.659234
	CHANNELS 6 Xposition Yposition Zposition Xrotation Yrotation Zrotation 
	JOINT C_spine0001_bind_JNT
	{
		OFFSET 0.000000 1.618999 0.000000
		CHANNELS 3 Xrotation Yrotation Zrotation
		JOINT C_spine0002_bind_JNT
		{
			OFFSET 0.000000 4.942001 0.000001
			CHANNELS 3 Xrotation Yrotation Zrotation
			JOINT C_spine0003_bind_JNT
			{
				OFFSET 0.000000 4.942001 -0.000000
				CHANNELS 3 Xrotation Yrotation Zrotation
				JOINT C_neck0001_bind_JNT
				{
					OFFSET 0.000000 17.026009 -0.000000
					CHANNELS 3 Xrotation Yrotation Zrotation
					JOINT C_neck0002_bind_JNT
					{
						OFFSET 0.000000 3.249985 0.000000
						CHANNELS 3 Xrotation Yrotation Zrotation
						JOINT C_head_bind_JNT
						{
							OFFSET 0.000000 5.278008 0.000000
							CHANNELS 3 Xrotation Yrotation Zrotation
							End Site
							{
								OFFSET 0.000000 0.000000 0.000000
							}
						}
					}
				}
				JOINT L_clavicle_bind_JNT
				{
					OFFSET 4.590000 12.067001 0.834000
					CHANNELS 3 Xrotation Yrotation Zrotation
					JOINT L_armUpper0001_bind_JNT
					{
						OFFSET 7.812635 0.512001 -3.452945
						CHANNELS 3 Xrotation Yrotation Zrotation
						JOINT L_armLower0001_bind_JNT
						{
							OFFSET 15.265892 -6.552116 -0.058157
							CHANNELS 3 Xrotation Yrotation Zrotation
							JOINT L_hand0001_bind_JNT
							{
								OFFSET 14.747667 -6.369995 5.049225
								CHANNELS 3 Xrotation Yrotation Zrotation
								End Site
								{
									OFFSET 0.000000 0.000000 0.000000
								}
							}
						}
					}
				}
				JOINT R_clavicle_bind_JNT
				{
					OFFSET -4.590000 12.067001 0.834000
					CHANNELS 3 Xrotation Yrotation Zrotation
					JOINT R_armUpper0001_bind_JNT
					{
						OFFSET -7.812635 0.512001 -3.452945
						CHANNELS 3 Xrotation Yrotation Zrotation
						JOINT R_armLower0001_bind_JNT
						{
							OFFSET -15.265890 -6.552124 -0.058160
							CHANNELS 3 Xrotation Yrotation Zrotation
							JOINT R_hand0001_bind_JNT
							{
								OFFSET -14.746784 -6.369629 5.048937
								CHANNELS 3 Xrotation Yrotation Zrotation
								End Site
								{
									OFFSET 0.000000 0.000000 0.000000
								}
							}
						}
					}
				}
			}
		}
	}
	JOINT C_pelvis0001_bind_JNT
	{
		OFFSET -0.000000 0.000000 0.000000
		CHANNELS 3 Xrotation Yrotation Zrotation
		JOINT L_legUpper0001_bind_JNT
		{
			OFFSET 6.599999 -6.027000 0.539000
			CHANNELS 3 Xrotation Yrotation Zrotation
			JOINT L_legLower0001_bind_JNT
			{
				OFFSET -0.140713 -19.187443 0.040261
				CHANNELS 3 Xrotation Yrotation Zrotation
				JOINT L_foot0001_bind_JNT
				{
					OFFSET -0.132215 -18.028637 -1.138370
					CHANNELS 3 Xrotation Yrotation Zrotation
					JOINT L_foot0002_bind_JNT
					{
						OFFSET 0.007014 -4.693133 9.886524
						CHANNELS 3 Xrotation Yrotation Zrotation
						End Site
						{
							OFFSET 0.000000 0.000000 0.000000
						}
					}
				}
			}
		}
		JOINT R_legUpper0001_bind_JNT
		{
			OFFSET -6.599999 -6.027000 0.539000
			CHANNELS 3 Xrotation Yrotation Zrotation
			JOINT R_legLower0001_bind_JNT
			{
				OFFSET 0.140710 -19.187164 0.040550
				CHANNELS 3 Xrotation Yrotation Zrotation
				JOINT R_foot0001_bind_JNT
				{
					OFFSET 0.132215 -18.028633 -1.138362
					CHANNELS 3 Xrotation Yrotation Zrotation
					JOINT R_foot0002_bind_JNT
					{
						OFFSET -0.007014 -4.693128 9.886505
						CHANNELS 3 Xrotation Yrotation Zrotation
						End Site
						{
							OFFSET 0.000000 0.000000 0.000000
						}
					}
				}
			}
		}
	}
}
MOTION
Frames: 14
Frame Time: 0.033333
0.534007 47.659035 43.414371 0.017493 -5.398441 -0.019716 -7.110252 1.421617 3.287868 10.026265 2.467849 -3.417385 4.471353 2.601366 -1.689749 -2.187721 -0.297183 -0.827767 1.625545 1.251125 -0.137736 10.983562 -0.311763 2.698746 -0.017163 13.611512 -4.485327 -7.330021 4.270863 -59.370377 -0.141976 -11.166181 -17.296021 -12.407955 -40.447906 -7.603330 -1.510611 -12.198804 1.783679 -2.229611 -0.115341 54.597725 12.386570 8.283381 8.156176 -6.581916 36.323292 23.672081 -4.754895 1.324342 2.365694 1.774020 -0.149179 -10.306241 12.569252 4.832279 -0.981286 -8.070444 -1.425518 5.998588 -1.724380 -0.337715 0.127021 -10.892444 -0.122605 -3.878278 59.248432 -1.024255 3.651204 1.300105 -7.291685 1.270036 -13.518302 -0.750667 -2.014183 
0.713729 47.755116 44.135612 -0.003439 -5.674098 -0.001393 -7.572906 2.257110 2.940203 10.609351 1.317564 -3.246206 4.753769 1.721501 -1.701376 -1.679792 -0.439585 -1.132356 1.169713 2.021863 -0.253556 10.920226 0.143528 3.544358 -0.233249 11.924260 -4.164439 -12.005934 1.424080 -60.234840 -5.894655 -10.422750 -19.081272 -9.622145 -41.231571 -3.284020 -1.342721 -12.970128 1.988154 1.525322 -2.807748 53.338444 15.008826 5.984037 7.465724 -5.615700 36.564270 24.194651 -5.167237 2.271030 2.140423 3.208995 -0.223942 -10.387296 12.626489 4.232621 -0.778698 -8.480620 -1.447801 6.249545 -1.907501 0.045075 -0.044871 -14.970208 -0.249812 -4.261864 61.991730 -1.345548 3.730938 -0.467495 -8.514713 -0.269472 -8.360561 -0.684794 -1.227141 
0.790144 47.757587 44.841854 0.009104 -6.220626 -0.023314 -7.883157 3.232620 2.500283 11.141865 -0.017275 -2.968307 4.832029 0.972137 -1.457355 -1.861606 -0.311225 -1.377640 1.399366 2.938905 -0.088172 10.569195 0.402974 3.838115 -0.565364 10.673538 -3.875004 -16.591923 -1.566685 -60.440472 -11.103456 -9.822952 -21.349264 -4.965156 -42.162010 2.536296 -0.876334 -13.522581 2.030230 5.354949 -6.497231 51.359955 17.448929 4.284236 7.211068 -5.723860 37.949955 25.686800 -5.054891 3.258528 1.786186 4.107479 -0.054978 -10.088440 12.430310 3.232419 -0.403365 -9.103655 -1.028124 6.096170 -1.877258 0.109834 0.089819 -18.772848 -0.539543 -3.881590 62.157944 -1.373431 3.920977 -2.094742 -9.462850 -1.707749 -5.964869 -0.355420 -0.670545 
0.836986 47.909149 45.511395 0.018473 -6.688311 -0.021588 -7.725208 4.080651 2.025720 11.093418 -1.103991 -2.765202 5.226792 -0.194709 -1.508326 -2.040535 -0.011383 -1.502784 1.339732 4.038700 0.050292 10.085319 0.481942 4.573999 -1.308280 10.082083 -3.236938 -20.022448 -4.033896 -60.282829 -15.808959 -10.527100 -23.420477 -1.673207 -41.952793 7.103640 -0.740152 -14.111738 2.077787 8.821488 -9.628969 49.987003 19.622267 3.967716 6.871186 -6.667277 39.593578 27.192314 -5.353867 4.192192 1.164248 5.806843 -0.065269 -9.513359 11.116545 3.021391 0.064791 -8.819435 -1.300976 5.674391 -2.044764 0.253261 -0.025167 -21.577057 -0.684085 -3.109644 59.739590 -2.227667 4.705388 -2.805415 -8.924756 -1.784878 -5.766407 -0.382494 -0.803255 
0.868654 48.020374 46.378197 0.013912 -7.034851 -0.019813 -7.548563 4.822357 1.643227 11.157777 -2.222238 -2.568546 5.054447 -1.003683 -1.260864 -1.860798 0.035857 -1.731393 1.336462 4.998786 0.108205 9.800896 0.783221 4.899854 -1.692615 8.970522 -2.415553 -22.925497 -5.922841 -59.997341 -20.141390 -10.807301 -25.570127 1.691330 -41.514481 11.864575 -0.474634 -14.900534 1.653354 11.800530 -12.650018 48.123768 20.971052 4.403290 7.014869 -7.861024 40.454670 29.131397 -4.960164 4.904692 0.590506 7.127584 -0.428214 -8.843549 9.901018 2.539983 0.141798 -8.873644 -0.880049 5.486175 -2.470096 0.113348 0.147061 -24.094601 -0.628269 -2.118314 55.209930 -3.527591 5.359068 -3.592711 -8.456072 -1.476483 -4.049551 -0.335416 -0.983217 
0.935585 48.001133 47.253834 0.017455 -7.438784 -0.021031 -7.100690 5.353498 1.090743 11.033512 -3.088019 -2.331116 5.103127 -1.833177 -1.259257 -1.917180 0.211316 -1.843322 1.381073 5.960361 0.272574 9.655305 1.044215 5.251407 -2.352390 8.225694 -1.580665 -25.063553 -8.027580 -59.723343 -24.703421 -11.214325 -27.476646 4.311014 -40.823349 15.549913 -0.350727 -15.558631 1.410241 14.366669 -15.406809 46.847328 21.495764 4.578895 6.941135 -7.954016 41.677452 30.818649 -4.738925 5.332942 0.486356 8.499784 -0.692412 -9.000463 8.655822 2.516651 0.351011 -8.825895 -0.913127 5.629032 -2.648276 0.004508 -0.071837 -25.977318 -0.411888 -1.399777 48.480434 -5.223107 5.470090 -4.079200 -8.263631 -0.390226 -2.349022 0.116499 -1.500276 
0.894211 47.955879 48.252594 0.023992 -7.832183 -0.007752 -6.666050 5.433099 0.706805 10.808517 -3.784515 -2.203224 5.053715 -2.547391 -1.207380 -2.034404 0.388038 -1.770191 1.210826 6.839896 0.116920 9.503019 1.311363 5.529386 -2.758849 7.471485 -0.901010 -27.127289 -9.993065 -58.982040 -28.450169 -11.673802 -29.160480 6.748158 -40.333103 18.975727 -0.179804 -16.381962 1.191835 16.068966 -17.434959 44.936264 21.741970 5.606426 7.461936 -8.320179 41.970737 32.197056 -4.219597 5.467294 0.268206 9.604156 -0.933740 -9.071717 7.936661 2.009363 0.526332 -9.384404 0.270768 5.641302 -2.948912 -0.051494 0.094065 -25.975410 -0.217171 -0.762023 38.893291 -6.933216 5.437984 -3.646713 -7.845356 0.390127 -0.898165 0.186685 -1.186361 
0.627644 47.903015 49.232738 0.030900 -7.922232 -0.026783 -6.126053 5.277166 0.439621 10.567246 -4.222224 -2.050297 4.838044 -2.960202 -1.246386 -2.083073 0.498743 -1.869361 1.369980 7.466979 0.234296 9.298665 1.388950 5.471808 -3.138686 6.601481 -0.382472 -28.491407 -11.696932 -58.256641 -31.904076 -12.226555 -30.593140 9.364310 -39.411922 21.406185 0.100522 -17.009689 0.807634 17.248226 -19.593813 43.701706 21.700933 6.089447 8.154460 -8.395249 43.111229 33.756702 -3.825289 5.066454 0.222007 10.776317 -0.579155 -8.825397 7.194204 1.364394 0.787872 -9.764270 1.044771 5.132142 -3.480074 -0.078198 0.256932 -24.062952 0.230349 0.080204 26.995600 -9.116407 4.733119 -2.008260 -7.208031 1.543925 0.646168 0.003921 -0.409520 
0.249529 47.811592 50.211914 0.019360 -7.983998 -0.002643 -5.758839 5.012490 0.513429 9.982898 -4.561767 -2.142710 4.903506 -3.250034 -1.220143 -2.308284 0.407909 -1.777112 1.319208 7.845197 0.165421 9.531228 1.441587 5.216722 -3.531187 5.980489 0.036128 -29.539894 -13.080649 -58.254837 -33.869095 -12.816747 -30.716770 11.161800 -38.989357 23.141918 0.118639 -17.507357 0.876243 17.879456 -21.171642 42.455715 22.183163 6.333395 8.615764 -8.470972 43.907749 34.709099 -3.607959 4.932034 -0.069277 11.787262 -0.844363 -8.233734 7.073460 0.959577 0.805602 -10.385954 2.006541 4.577498 -3.825454 -0.060149 0.556996 -21.959969 0.007921 1.161793 16.751043 -10.941436 3.846680 0.687980 -6.135611 1.927333 0.233774 0.080992 -0.373857 
-0.168433 47.733250 51.372349 0.031790 -8.000781 -0.017601 -5.739263 5.114001 0.569513 9.790190 -4.934990 -1.933131 4.511649 -3.588439 -1.244479 -2.350064 0.402590 -1.554765 1.549275 7.972482 0.095899 9.896736 1.112769 4.931855 -3.388776 5.484026 -0.013438 -30.009275 -13.721040 -57.613884 -35.085098 -13.511295 -31.561329 12.816826 -38.271957 24.608923 0.405606 -17.954453 0.897915 18.484804 -22.628708 41.331814 22.018209 7.185413 9.043560 -8.866516 44.137932 35.968033 -3.574464 4.962993 -0.266369 13.276666 -1.019720 -7.800733 7.034600 0.127468 1.535658 -10.934755 3.377359 3.378286 -4.500768 -0.098941 0.730248 -19.515505 -0.126313 2.432083 10.077616 -12.498874 2.732141 3.054436 -4.829004 1.854896 -0.356705 0.207585 -0.883088 
-0.520209 47.578835 52.604626 0.016110 -7.985354 -0.012714 -5.717635 5.050411 0.322616 9.464713 -5.097303 -1.467547 4.374751 -3.681500 -1.092825 -2.551258 0.468362 -1.558228 1.683012 7.762661 0.208832 10.533500 1.121582 4.541962 -3.302375 5.381658 -0.028503 -30.078798 -13.905020 -57.654545 -35.341755 -14.078757 -31.932974 13.548723 -38.354897 25.101479 0.603168 -18.249094 0.845670 18.665216 -23.322805 40.863552 21.587135 7.536541 9.646098 -8.688806 44.298306 35.848503 -3.787616 4.950577 -0.307575 15.133060 -1.120240 -7.398416 6.740248 -0.021204 1.532114 -11.158628 3.739191 2.771151 -5.306821 -0.175116 0.578078 -17.870989 -0.339789 3.512808 7.738873 -12.570632 1.954395 4.292501 -4.697151 -0.484019 -0.304810 -0.020627 -0.964872 
-0.823892 47.412987 54.015125 0.025935 -7.723062 -0.011221 -5.803759 4.960727 -0.236817 9.310601 -5.183862 -0.773151 4.149621 -3.719144 -0.803453 -2.586804 0.554006 -1.085510 1.614961 7.381773 0.097011 11.794703 1.062934 4.151134 -2.836291 5.241496 0.096466 -30.084665 -13.394931 -57.969566 -35.050446 -14.890274 -32.498444 14.020208 -38.555725 25.151794 1.007303 -18.630520 1.015479 18.462296 -23.622362 40.278664 20.927044 8.113730 10.484812 -9.239148 43.595135 35.709167 -3.819617 4.902162 -0.597726 16.691759 -1.432655 -6.907711 7.101641 0.067960 1.847884 -11.327659 4.209306 1.613383 -6.898814 -0.068098 0.812135 -16.376438 -0.637697 4.444791 7.683919 -11.787656 2.007027 5.285809 -5.274099 -2.600260 0.283360 0.013020 -1.035920 
-1.091263 47.360241 55.487404 0.017009 -7.629093 -0.021132 -5.633001 4.829333 -1.016534 9.100471 -5.100869 -0.065056 4.220675 -3.593252 -0.284113 -3.039627 0.673643 -0.850164 1.916305 7.091154 0.037207 12.495193 1.027049 3.682796 -2.948743 5.279819 0.065247 -29.032967 -12.637109 -58.116211 -34.712780 -15.861753 -33.369186 14.352771 -39.030823 24.954859 1.122893 -18.729013 1.261346 17.896214 -23.138233 40.664341 19.832752 7.869787 10.861019 -9.262449 43.076889 35.115208 -3.790303 4.997867 -1.125908 17.943514 -1.800967 -5.959725 7.937531 0.790916 1.558295 -11.177470 4.076335 0.958276 -9.284070 0.143084 0.541264 -15.608681 -1.147817 5.500571 9.226540 -11.083465 2.232516 4.314036 -6.598279 -4.099565 1.096993 -0.144903 -0.823712 
-1.394116 47.421494 56.861931 0.021028 -7.527131 -0.010771 -5.885594 4.799709 -1.848884 9.145752 -4.955779 0.959309 4.052627 -3.407772 0.040761 -3.178056 0.678871 -0.673205 1.951526 6.685342 0.015076 13.564084 0.821999 3.326501 -2.654294 5.628727 -0.030484 -27.577385 -11.605292 -58.509148 -33.046314 -16.961855 -33.659012 13.300629 -39.504932 23.809853 1.568623 -18.882160 1.824424 16.979305 -21.811569 41.352261 18.181330 8.060736 11.206189 -9.873033 41.846401 33.581394 -3.909733 4.812446 -1.844290 18.019415 -1.170637 -4.842678 10.770297 0.797421 1.462811 -10.655544 3.742181 -0.499366 -12.812604 0.289723 0.578905 -14.256733 -1.474388 6.589807 10.948562 -10.852908 2.854538 3.427897 -7.148212 -5.091030 0.567178 0.039121 -0.848938 
